<?xml version="1.0" encoding="UTF-8"?>
<!DOCTYPE svg PUBLIC "-//W3C//DTD SVG 1.1//EN" "http://www.w3.org/Graphics/SVG/1.1/DTD/svg11.dtd">
<!-- Creator: CorelDRAW X7 -->
<svg xmlns="http://www.w3.org/2000/svg" xml:space="preserve" width="696px" height="696px" version="1.1" style="shape-rendering:geometricPrecision; text-rendering:geometricPrecision; image-rendering:optimizeQuality; fill-rule:evenodd; clip-rule:evenodd"
viewBox="0 0 24326263 24302418"
 xmlns:xlink="http://www.w3.org/1999/xlink">
 <defs>
  <style type="text/css">
   <![CDATA[
    .fil0 {fill:white;fill-opacity:0.101961}
   ]]>
  </style>
 </defs>
 <g id="Layer_x0020_1">
  <metadata id="CorelCorpID_0Corel-Layer"/>
  <g id="_711921420112">
   <path class="fil0" d="M7606864 15728819l-143356 84446c-16997,7921 -28630,12541 -45792,19554l-998542 280442c-1525184,371983 -2554501,1049944 -3318434,1292680 -760097,252801 -2161108,1408973 -2627768,2296378 -382998,728331 -448962,1008979 -448632,2058469 206,707044 -66790,1838835 20750,2495550 705683,89685 19990640,20751 22753513,20751 244304,0 488607,-248 732910,0 727713,783 785592,74792 794750,-366208l-16914 -2871535c-220170,-1991597 -1924189,-3018026 -3467443,-3909639l-1810329 -711005c-2080250,-740212 -4659587,-1221888 -7016855,-1218382 -604983,908 -1024656,82796 -1569780,101608 -285557,9859 -439763,41088 -714594,79619 -116376,16295 -267199,26196 -377758,48514 -452469,91335 -1370443,326233 -1745726,298758z"/>
   <path class="fil0" d="M6121571 6108411c0,633490 82755,814552 181763,1285089 240509,1143342 748133,2165852 1599111,2984941 778125,748958 541123,489144 1252169,949327l499952 280483c625280,354285 1824066,533037 2569559,530561 1591066,-5321 3176110,-697762 4251259,-1778976 2077900,-2089657 2354917,-5127402 710015,-7691846 -393765,-613853 -1279437,-1556290 -1938421,-1834297 -686624,-289724 -796317,-445580 -1638343,-663893 -1670562,-433163 -3505107,-8292 -4910904,941818 -753620,509275 -1755709,1625637 -2059253,2447696 -354698,960671 -516907,1364090 -516907,2549097z"/>
   <path class="fil0" d="M3100740 17405941c763933,-242736 1793250,-920697 3318434,-1292680l998542 -280442c17162,-7013 28795,-11633 45792,-19554l143356 -84446c-558986,-536 -1841764,480068 -2424347,675733 -278173,93398 -1915897,647639 -2081777,1001389z"/>
  </g>
 </g>
</svg>
