<?xml version="1.0" encoding="UTF-8"?>
<!DOCTYPE svg PUBLIC "-//W3C//DTD SVG 1.1//EN" "http://www.w3.org/Graphics/SVG/1.1/DTD/svg11.dtd">
<!-- Creator: CorelDRAW X7 -->
<svg xmlns="http://www.w3.org/2000/svg" xml:space="preserve" width="24px" height="24px" version="1.1" style="shape-rendering:geometricPrecision; text-rendering:geometricPrecision; image-rendering:optimizeQuality; fill-rule:evenodd; clip-rule:evenodd"
viewBox="0 0 1175346 1175346"
 xmlns:xlink="http://www.w3.org/1999/xlink">
 <defs>
  <style type="text/css">
   <![CDATA[
    .fil0 {fill:none}
    .fil2 {fill:#FEFEFE}
    .fil3 {fill:#292929}
    .fil1 {fill:black}
   ]]>
  </style>
 </defs>
 <g id="Layer_x0020_1">
  <metadata id="CorelCorpID_0Corel-Layer"/>
  <g id="_935194961408">
   <polygon class="fil0" points="0,0 1175346,0 1175346,1175346 0,1175346 "/>
   <path d="M587673 220373c-244861,0 -453980,152313 -538697,367300 84717,214986 293836,367300 538697,367300 244860,0 453979,-152314 538697,-367300 -84718,-214987 -293837,-367300 -538697,-367300zm0 612160c-135174,0 -244861,-109705 -244861,-244860 0,-135156 109705,-244861 244861,-244861 135155,0 244860,109705 244860,244861 0,135155 -109705,244860 -244860,244860zm0 -391788c-81293,0 -146928,65616 -146928,146928 0,81311 65616,146927 146928,146927 81311,0 146927,-65616 146927,-146927 0,-81312 -65616,-146928 -146927,-146928z"/>
  </g>
  <g id="_935194961216">
   <path class="fil2" d="M84236 961877c111,25672 2018,13493 27505,42442l13549 15215c10217,10180 68744,71538 74075,71538l22951 0c10199,-870 10550,-5571 31651,-26672l850691 -850691c22082,-22081 26709,-22229 27524,-32669l0 -21082c0,-6127 -22526,-24803 -27561,-30022l-13493 -15270c-10273,-10199 -68707,-71521 -74075,-71521l-22951 0c-10199,870 -10551,5553 -31651,26654l-850691 850709c-4961,4961 -27524,24174 -27524,30041l0 11328z"/>
   <polygon points="164178,961877 211784,1010834 1052277,172359 1004615,123384 "/>
  </g>
 </g>
</svg>
