<?xml version="1.0" encoding="UTF-8"?>
<!DOCTYPE svg PUBLIC "-//W3C//DTD SVG 1.1//EN" "http://www.w3.org/Graphics/SVG/1.1/DTD/svg11.dtd">
<!-- Creator: CorelDRAW X7 -->
<svg xmlns="http://www.w3.org/2000/svg" xml:space="preserve" width="24px" height="24px" version="1.1" style="shape-rendering:geometricPrecision; text-rendering:geometricPrecision; image-rendering:optimizeQuality; fill-rule:evenodd; clip-rule:evenodd"
viewBox="0 0 2400000 2400000"
 xmlns:xlink="http://www.w3.org/1999/xlink">
 <defs>
  <style type="text/css">
   <![CDATA[
    .fil1 {fill:none}
    .fil0 {fill:#040404}
   ]]>
  </style>
 </defs>
 <g id="Layer_x0020_1">
  <metadata id="CorelCorpID_0Corel-Layer"/>
  <g id="_1051583561904">
   <g>
    <path  d="M657874 479528c0,36378 35906,91653 101929,36732 11575,-9685 27402,-22323 40394,-29764 37086,-20787 75118,-27283 118346,-27047l867520 0c-47835,71457 -77598,112559 -80433,210472 -2717,95197 236,195236 236,290906 0,195590 0,391181 0,586653 0,143504 38268,364370 -189685,397205 -117520,17008 -230669,-80905 -236457,-191693 -2598,-50905 -17362,-80079 -70275,-80079l-401103 0c-45590,0 -70629,4961 -115393,4961l0 -235630c0,-95905 -115276,-83858 -115276,-15118l0 245787 -466299 0c-74764,0 -75236,39331 -75236,80197 0,71575 45945,170433 97323,213544 56929,47834 116574,92244 218622,92244l1158189 0c47007,0 94015,-16772 127086,-33307 108898,-54567 183780,-162756 183780,-302599l0 -992716 481299 0c18543,0 31417,-3780 41693,-13583 51260,-48662 -2244,-215079 -105236,-298937 -30591,-24803 -43347,-31181 -81851,-48543 -34606,-15709 -94370,-25040 -145393,-25040l-1082953 0c-89882,0 -165945,23858 -227244,73583 -18426,14882 -43583,30354 -43583,61772z"/>
    <polygon  points="172795,696378 621496,1147677 849685,921969 400984,470787 "/>
    <path  d="M677953 1206614c17244,1417 114803,47717 137126,58347 16890,8149 28228,14763 44055,21141 84685,34252 214960,123662 214960,50788 0,-4961 -155078,-331890 -170551,-360945 -13819,9212 -219449,207756 -225590,230669z"/>
    <path  d="M41220 499606c0,61654 38386,115748 75119,140433l226889 -224409c-93189,-136772 -302008,-71693 -302008,83976z"/>
    <path  d="M1139173 755315c0,29173 19488,45118 45236,45118l340867 0c75354,0 67086,-85276 15118,-85276l-361063 0c-24213,0 -40158,15945 -40158,40158z"/>
    <path  d="M1139173 940866c0,26103 6142,50079 40158,50079l355984 0c62598,0 56339,-85158 0,-85158l-350906 0c-19606,0 -45236,19134 -45236,35079z"/>
    <path  d="M1139173 1131378c0,26102 6142,50079 40158,50079l361063 0c49960,0 68267,-85158 -25158,-85158l-320905 0c-24095,0 -55158,13701 -55158,35079z"/>
   </g>
   <rect class="fil1" x="-1" y="2" width="2400000" height="2400000"/>
  </g>
 </g>
</svg>
