<?xml version="1.0" encoding="utf-8"?>
<!-- Generator: Adobe Illustrator 19.0.0, SVG Export Plug-In . SVG Version: 6.00 Build 0)  -->
<svg version="1.1" id="Camada_1" xmlns="http://www.w3.org/2000/svg" xmlns:xlink="http://www.w3.org/1999/xlink" x="0px" y="0px"
	 viewBox="0 0 164.1 87" style="enable-background:new 0 0 164.1 87;" xml:space="preserve" color="#ccc">
<style type="text/css">
	.bg{fill:#eee}
	.st1{fill:none;stroke:currentColor;stroke-width:2;stroke-linecap:round;stroke-linejoin:round;stroke-miterlimit:10;}
	.st2{stroke:currentColor;stroke-width:2;stroke-linecap:round;stroke-linejoin:round;stroke-miterlimit:10;}
</style>
<g id="XMLID_71_">
	<path id="XMLID_80_" class="bg" d="M146.9,66.9c-1.7-2.2-4.2-2.9-5.5-2.9h-0.8h-62l1.3-10.5c-0.2,0-0.5,0.1-0.7,0l-1.1,12.6
		l-6.9-1.7l1-11.5c-0.4,0-0.7-0.1-1.1-0.1l-0.7,9.6l-6.6-1.2l0.7-8.9c-0.3,0-0.5-0.1-0.8-0.1C43.7,51.1,25,51.3,9,52.4
		C-3,52.4-3,67,9,67h39c5,0,5,6,0,6H35c-11,0-11,14,0,14h78c2,0,2-3,0-3H91c-6,0-6-6,0-6h49.5c2.8,0,4.8-0.9,6.1-2.4
		C148.7,73.1,148.9,69.4,146.9,66.9z"/>
	<path id="XMLID_79_" class="st1" d="M142.5,63c0.1,0,0.4,0,0.8,0h17.2l2.6-45.2L87.9,4.4l-6.1,48.1L80.5,63H142.5z"/>
	<path id="XMLID_78_" class="st2 bg" d="M140.5,63h0.8C140.9,63,140.6,63,140.5,63z"/>
	<path id="XMLID_77_" class="st2 bg" d="M112.9,32.1c-13.7,0-24.9,10.5-24.9,23.4c0,2.6,0.5,4.5,1.3,7.5h47.1c0.8-3,1.3-4.9,1.3-7.5
		C137.8,42.6,126.6,32.1,112.9,32.1z"/>
	<polygon id="XMLID_76_" class="st2 bg" points="103.4,4 130.3,8.1 126.1,67 99.5,67 	"/>
	<circle id="XMLID_75_" class="bg" cx="118.6" cy="85.1" r="1.6"/>
	<g id="XMLID_72_">
		<polygon id="XMLID_74_" class="st1" points="74.5,4 68.5,4 63.8,60.1 70.4,61.2 		"/>
		<polygon id="XMLID_73_" class="st1" points="83.5,1 76.5,1 71.2,63.3 78.1,64.9 		"/>
	</g>
</g>
</svg>
