<?xml version="1.0" encoding="UTF-8"?>
<!DOCTYPE svg PUBLIC "-//W3C//DTD SVG 1.1//EN" "http://www.w3.org/Graphics/SVG/1.1/DTD/svg11.dtd">
<!-- Creator: CorelDRAW X7 -->
<svg xmlns="http://www.w3.org/2000/svg" xml:space="preserve" width="5.624mm" height="6.7292mm" version="1.1" style="shape-rendering:geometricPrecision; text-rendering:geometricPrecision; image-rendering:optimizeQuality; fill-rule:evenodd; clip-rule:evenodd"
viewBox="0 0 53 64"
 xmlns:xlink="http://www.w3.org/1999/xlink">
 <defs>
  <style type="text/css">
   <![CDATA[
    .fil1 {fill:#FEFEFE}
    .fil0 {fill:#570909}
   ]]>
  </style>
 </defs>
 <g id="Layer_x0020_2">
  <metadata id="CorelCorpID_0Corel-Layer"/>
  <g id="_794639568">
   <path class="fil0" d="M27 0c14,0 26,12 26,27 0,9 -5,16 -10,21l-16 16c0,0 0,0 0,0l-16 -15c-6,-6 -11,-13 -11,-22 0,-15 12,-27 27,-27z"/>
   <circle class="fil1" cx="27" cy="27" r="21"/>
  </g>
  <path class="fil0" d="M12 30c0,1 1,2 2,2l26 0c2,-1 2,-5 -1,-5l-25 0c-1,1 -2,2 -2,3zm29 -4c1,-1 -2,-1 -2,-1l-24 0c0,0 -3,0 -3,1 0,0 0,1 1,1 0,0 1,0 2,0l23 0c1,0 3,0 3,-1zm-27 -2c0,0 3,0 4,0l19 0c3,0 3,1 3,-1 -1,-3 -2,-5 -3,-6 -2,-2 -4,-3 -7,-3 -6,-2 -13,0 -16,6 0,1 -1,3 0,4zm0 11c0,1 1,2 2,2 6,0 13,0 19,0 2,0 5,1 5,-3 0,-2 0,-1 -3,-1 -7,0 -15,0 -22,0 -1,0 -1,0 -1,0 0,1 0,2 0,2z"/>
 </g>
</svg>
